# xmcd CD database file
#
# Track frame offsets:
#	150
#	21252
#	40727
#	60782
#	81910
#
# Disc length: 1348 seconds
#
# Revision: 0
# Processed by: cddbd v1.5PL3 Copyright (c) Steve Scherf et al.
# Submitted via: CDex 1.50
#
DISCID=30054205
DTITLE=三枝夕夏 ＩＮ db - I can't see, I can't feel
DYEAR=2003
DGENRE=JPop
TTITLE0=I can't see, I can't feel
TTITLE1=私じゃない 私と似た 貴方が愛する人に
TTITLE2=CHU☆TRUE LOVE 〜night clubbers mix〜
TTITLE3=I can't see, I can't feel 〜Instrumental〜
TTITLE4=私じゃない 私と似た 貴方が愛する人に 〜Instrumental〜
EXTD=YEAR: 2003
EXTT0=
EXTT1=
EXTT2=
EXTT3=
EXTT4=
PLAYORDER=
